# xmcd
#
# Track frame offsets: 
#        150
#        20407
#        34782
#        54698
#        84799
#        111734
#        139966
#        161414
#        184012
#        197744
#
# Disc length: 2958 seconds
#
# Revision: 0
# Processed by: cddbd v1.5.2PL0 Copyright (c) Steve Scherf et al.
# Submitted via: ExactAudioCopy v1.3
#
DISCID=850b8c0a
DTITLE=David Ralston - I Don't Care
DYEAR=2012
DGENRE=Blues Rock
TTITLE0=I Don't Care
TTITLE1=Woke Up Loving You
TTITLE2=Low Down Dirty Ways
TTITLE3=Today's Got Me Down
TTITLE4=Gdsob
TTITLE5=Laugh To Keep From Crying
TTITLE6=Johnny Cash Song
TTITLE7=How Do I Stop The Pain
TTITLE8=You Don't Deserve Me
TTITLE9=Going Down To Die
EXTD=
EXTT0=
EXTT1=
EXTT2=
EXTT3=
EXTT4=
EXTT5=
EXTT6=
EXTT7=
EXTT8=
EXTT9=
PLAYORDER=
